<svg width="40" height="40" viewBox="0 0 40 40" fill="none" xmlns="http://www.w3.org/2000/svg">
<path fill-rule="evenodd" clip-rule="evenodd" d="M38.3113 20.5453C38.3075 20.6692 38.1389 20.7019 38.0902 20.5877C38.0694 20.5384 38.048 20.489 38.0262 20.4395C37.9865 20.349 37.9976 20.2438 38.057 20.1647C38.0692 20.1485 38.0942 20.1157 38.124 20.0767C38.2042 19.9718 38.3198 19.9875 38.3198 20.1039C38.3198 20.2566 38.3162 20.3888 38.3113 20.5453ZM37.4241 18.1206C37.2874 18.3669 36.9371 18.3782 36.7854 18.1408C36.7618 18.1041 36.7381 18.0674 36.7142 18.0305C36.1674 17.1903 35.5381 16.3656 34.8353 15.5641C34.6627 15.3674 34.8038 15.0585 35.0655 15.0583H35.0718C36.7142 15.0583 37.5752 15.4643 37.838 15.96C38.0573 16.3746 37.9901 17.0997 37.4241 18.1206ZM37.057 26.7152C36.9689 26.9395 36.8767 27.1623 36.7798 27.383C36.7647 27.4134 36.7505 27.4442 36.7349 27.4744C36.1304 28.6387 35.116 29.5555 33.7605 30.1935C33.4564 30.3365 33.1236 30.0581 33.2142 29.7343C33.6643 28.1223 34.005 26.3741 34.2257 24.5414C34.2669 24.1997 34.4353 23.886 34.6956 23.6608C35.253 23.1782 35.7736 22.6963 36.2524 22.2179L36.2576 22.2125C36.4933 21.9772 36.8952 22.0785 36.9912 22.3976C37.4643 23.9713 37.4906 25.437 37.057 26.7152ZM33.3724 32.535C33.2345 32.6825 33.0938 32.8282 32.9504 32.9718C32.7005 33.2214 32.4447 33.463 32.1834 33.6963C32.0185 33.8432 31.7692 33.6594 31.8625 33.459C31.8891 33.4018 31.9155 33.3443 31.9418 33.2862C32.0516 33.0439 32.1576 32.7953 32.2608 32.5421C32.2853 32.4823 32.3367 32.4377 32.3992 32.4217C32.6592 32.3557 32.9126 32.2829 33.1594 32.2032C33.3595 32.1388 33.5162 32.3814 33.3724 32.535ZM30.6666 31.0799C30.1194 31.1592 29.544 31.2105 28.942 31.2317C27.4733 31.2831 25.9202 31.1563 24.3249 30.8624C24.1304 30.8266 24.093 30.5635 24.2694 30.4743C24.6174 30.298 24.9655 30.1178 25.3135 29.9332C27.7546 28.6385 30.0322 27.2233 32.0261 25.7723C32.1756 25.6635 32.3816 25.7919 32.3512 25.9745C32.0748 27.6374 31.6919 29.2028 31.2111 30.6237C31.1291 30.8658 30.9195 31.0432 30.6666 31.0799ZM30.1024 33.2954C28.7936 35.8711 27.1817 37.3172 25.6193 37.2881C23.9212 37.2579 22.2279 35.4883 20.974 32.4336L20.9725 32.4302C20.8929 32.2363 20.9844 32.0143 21.1764 31.9309C21.1897 31.9249 21.203 31.9192 21.2163 31.9132C21.2986 31.8774 21.391 31.871 21.4776 31.8954C23.8232 32.5541 26.1343 32.8978 28.2996 32.8978C28.5349 32.8978 28.7686 32.8939 29.0003 32.8858C29.2715 32.8761 29.5385 32.8608 29.8007 32.8399C30.0439 32.8207 30.2131 33.0777 30.1024 33.2954ZM22.3521 38.1936C21.574 38.2936 20.7843 38.3448 19.9869 38.3448C16.4235 38.3448 13.0152 37.3343 10.089 35.4487C9.88768 35.3189 9.97324 35.0063 10.2125 34.9953C10.2621 34.993 10.3085 34.9904 10.3493 34.9879C11.0929 34.9395 11.9083 34.8305 12.7918 34.6602C14.6711 34.2985 16.7602 33.6779 18.9476 32.8423C19.1437 32.7674 19.3626 32.8647 19.4425 33.059L19.4439 33.0624C20.2916 35.1277 21.3349 36.6882 22.5063 37.6809C22.6999 37.8452 22.6038 38.1612 22.3521 38.1936ZM11.7505 25.3401C13.3659 24.0238 15.2587 22.7104 17.335 21.4669C17.3796 24.1243 17.6708 26.6756 18.1862 28.9801C17.4161 28.6515 16.6484 28.2896 15.8873 27.894C14.4131 27.1274 13.0262 26.2687 11.7505 25.3401ZM6.72654 32.4604C6.34115 31.7328 6.83925 30.0474 9.36963 27.4859L9.37089 27.4847C9.63513 27.2175 9.60978 26.7792 9.31481 26.5466C9.21342 26.467 9.11276 26.3864 9.01282 26.3058C8.76081 26.102 8.39609 26.1207 8.16726 26.35C8.11711 26.4002 8.07972 26.438 8.06876 26.4493C6.80383 27.7485 5.91855 28.9511 5.42261 30.0329C5.28204 30.3394 4.85747 30.3725 4.6716 30.0911C2.70852 27.1217 1.65409 23.6421 1.65409 19.9999C1.65409 18.6978 1.78926 17.4164 2.05224 16.1717C2.09197 15.9834 2.35746 15.9714 2.41319 16.1556C2.79354 17.4121 3.41261 18.7119 4.26806 20.0262C5.41956 21.7957 6.93811 23.4968 8.73762 25.0571C9.35183 25.5897 10.0006 26.1049 10.6772 26.6019C12.0487 27.6089 13.539 28.5383 15.1246 29.3627C15.8274 29.7282 16.5119 30.0769 17.213 30.3928C17.6032 30.5685 18.0474 30.5822 18.4457 30.4257C18.7763 30.2962 19.1092 30.1615 19.4441 30.0214C19.8083 29.8694 20.0058 29.472 19.9093 29.0891C19.8972 29.0412 19.8877 29.0028 19.8823 28.9801C19.3303 26.6555 19.0234 24.0385 18.9873 21.2975C18.987 21.2649 18.9861 21.2324 18.9857 21.1995C18.9841 21.0496 18.985 20.8987 18.9823 20.7492C18.9814 20.7016 18.9828 20.6208 18.9834 20.573C18.9837 20.5539 18.9834 20.535 18.9834 20.5161C18.9843 20.3445 18.9862 20.1729 18.9893 20.0008C18.9977 19.5306 19.0146 19.0639 19.0389 18.6009C19.2091 15.2933 19.7687 12.1858 20.6605 9.57141C20.743 9.32949 20.6141 9.06688 20.3723 8.98432C20.1367 8.90374 19.9012 8.82675 19.6661 8.75301C19.4283 8.67836 19.1741 8.80679 19.0937 9.04296C18.1272 11.8822 17.5308 15.2506 17.3717 18.8151C17.3514 19.2673 17.1055 19.6788 16.7163 19.9096C14.6066 21.1608 12.669 22.4872 10.9951 23.8241C10.6464 24.1027 10.1483 24.0921 9.8111 23.7995C8.13347 22.344 6.72151 20.7631 5.65413 19.1229C3.55659 15.9 3.05814 12.8638 4.25098 10.5751C4.25422 10.5697 4.25709 10.5641 4.26015 10.5589C4.41222 10.3064 4.5704 10.0572 4.73506 9.81154C6.10567 7.99611 8.65673 6.94406 12.04 6.82516C12.2541 6.81761 12.4697 6.81383 12.6872 6.81383C14.7624 6.81383 16.9895 7.15648 19.2546 7.81049C19.3042 7.82488 19.3544 7.83927 19.404 7.85384C19.4423 7.86517 19.4806 7.87578 19.5188 7.88729C20.0423 8.04378 20.5672 8.21735 21.0928 8.40658C21.105 8.41089 21.1174 8.41539 21.1296 8.41971C21.2666 8.46917 21.4034 8.5199 21.5402 8.57152C21.583 8.58771 21.6259 8.60407 21.6687 8.62062C21.7099 8.63645 21.751 8.65174 21.7924 8.66775C22.8986 9.0962 24.0033 9.59516 25.0948 10.1628C27.2074 11.2611 29.1412 12.5486 30.8241 13.9611C27.6124 14.6973 23.8793 16.1176 20.1259 18.0325C19.9528 18.121 19.8388 18.2951 19.8278 18.4894C19.8147 18.7221 19.7975 19.1901 19.7851 19.5621C19.7773 19.7956 20.0241 19.9503 20.2309 19.8416L20.233 19.8404C23.9492 17.8877 27.6581 16.4282 30.8431 15.657C31.4385 15.5129 31.8238 14.9407 31.7403 14.3336C31.6817 13.9095 31.6157 13.492 31.5427 13.0819C31.451 12.5668 31.1692 12.1061 30.7532 11.7892C29.2615 10.6521 27.6174 9.60901 25.8575 8.69383C24.6715 8.07724 23.468 7.53691 22.2621 7.07608C22.0041 6.97751 21.8936 6.67245 22.0282 6.43125C23.2707 4.20716 24.7484 2.96156 26.188 2.96156C26.203 2.96156 26.2179 2.96156 26.2328 2.96192C27.9309 2.99231 29.6242 4.76169 30.8782 7.81642C31.5129 9.36277 32.0047 11.146 32.3408 13.0839L32.3356 13.0792C32.479 13.9063 32.5946 14.761 32.6804 15.6379C32.673 15.6426 32.6651 15.6467 32.6577 15.6514C32.6678 15.6616 32.6784 15.6719 32.6886 15.6823C32.8308 17.1536 32.8909 18.6858 32.8628 20.2492C32.8452 21.2381 32.7925 22.2134 32.7073 23.1676C30.4354 25.0048 27.6264 26.8332 24.5388 28.4705C23.5241 29.0087 22.5096 29.5096 21.5049 29.9708C21.4893 29.978 21.4738 29.985 21.4582 29.9922C21.3815 30.0273 21.3045 30.0629 21.2278 30.0976L21.226 30.0971C20.3935 30.4739 19.569 30.8225 18.7581 31.1409C18.7123 31.1589 18.6672 31.1768 18.6215 31.1946C18.5645 31.217 18.5076 31.2389 18.4508 31.2608C18.3147 31.313 18.1791 31.3644 18.044 31.415C18.0068 31.4288 17.9694 31.4434 17.9322 31.4571C17.7681 31.5181 17.6048 31.5772 17.4422 31.6355C17.4218 31.6427 17.4015 31.6504 17.3814 31.6576C15.6437 32.2769 13.9877 32.7444 12.4792 33.0349C8.83397 33.7371 7.1175 33.1984 6.72654 32.4604ZM9.34464 5.05884C12.4299 2.84806 16.1167 1.65516 19.9869 1.65516C21.0085 1.65516 22.0169 1.7388 23.005 1.90194C23.2696 1.94565 23.3584 2.28363 23.1473 2.44929C22.1898 3.20042 21.3002 4.31184 20.5129 5.75314C20.3207 6.10478 19.9132 6.27674 19.5278 6.1681C16.9194 5.43333 14.3531 5.08762 11.982 5.1709C11.1073 5.20166 10.279 5.29033 9.50085 5.43387C9.28227 5.47416 9.16399 5.18817 9.34464 5.05884ZM34.5097 18.4286C34.5043 18.2183 34.774 18.1285 34.8958 18.2998C35.0456 18.51 35.1899 18.7214 35.3281 18.9338C35.5118 19.2162 35.6828 19.497 35.8417 19.776C35.9407 19.9499 35.917 20.1681 35.7822 20.3159C35.5681 20.5512 35.3359 20.7944 35.0837 21.0466C34.9916 21.1385 34.8978 21.2306 34.8022 21.3229C34.6835 21.4376 34.4846 21.3502 34.491 21.1851C34.5027 20.8841 34.5113 20.5821 34.5167 20.2787C34.5279 19.6571 34.5252 19.0399 34.5097 18.4286ZM32.6085 6.69494C32.7237 6.8043 32.8377 6.91546 32.9504 7.02823C34.717 8.796 36.0777 10.8616 36.9876 13.1113C37.0795 13.3381 36.887 13.5755 36.6463 13.5321C36.1198 13.4375 35.5273 13.3953 34.8714 13.4062C34.4168 13.4138 34.0217 13.0951 33.9419 12.6472C33.5854 10.6472 33.0701 8.79977 32.4082 7.18742C32.3705 7.09551 32.3324 7.00467 32.2937 6.91474C32.2096 6.7185 32.4537 6.5478 32.6085 6.69494ZM39.5423 15.8402C38.7524 12.0851 36.8952 8.63483 34.1198 5.85764C30.3448 2.08019 25.3258 0 19.9869 0C14.6483 0 9.62901 2.08019 5.85402 5.85764C4.93584 6.77642 4.11922 7.76912 3.40722 8.82172C3.19547 9.10375 3.00583 9.40162 2.83722 9.71333C0.987743 12.7886 0 16.3183 0 19.9999C0 25.3422 2.07902 30.3646 5.85402 34.142C9.62901 37.9194 14.6483 40 19.9869 40C25.3258 40 30.3448 37.9194 34.1198 34.142C35.9015 32.3593 37.3049 30.2991 38.2906 28.059C38.4111 27.8108 38.5162 27.5566 38.6066 27.2974C39.504 25.003 39.974 22.5377 39.974 19.9999C39.974 18.603 39.8306 17.2287 39.5532 15.892C39.5495 15.8748 39.546 15.8575 39.5423 15.8402Z" fill="#7C2BF8"/>
</svg>
