<svg width="31" height="40" viewBox="0 0 31 40" fill="none" xmlns="http://www.w3.org/2000/svg">
<path fill-rule="evenodd" clip-rule="evenodd" d="M24.8041 16.6825L24.8034 16.6842C26.4198 18.7304 27.3859 21.322 27.3859 24.1408C27.3859 27.0015 26.3909 29.6283 24.7308 31.6884L24.588 31.8658L24.5501 31.6404C24.5177 31.4486 24.48 31.2551 24.4359 31.06C23.6051 27.3749 20.8982 24.2149 16.4431 21.6563C13.4346 19.9333 11.7125 17.8585 11.2604 15.5012C10.9684 13.9769 11.1855 12.4458 11.605 11.1344C12.0244 9.82336 12.6483 8.72495 13.1784 8.06365L14.9117 5.92388C15.2157 5.54871 15.7845 5.54871 16.0884 5.92388L24.8041 16.6825ZM27.5453 14.545L15.9294 0.205336C15.7076 -0.0684452 15.2924 -0.0684453 15.0706 0.205336L3.45431 14.5444L3.41683 14.5926C1.27921 17.2704 0 20.6734 0 24.3779C0 33.0056 6.93944 40 15.5 40C24.0606 40 31 33.0056 31 24.3779C31 20.6734 29.7208 17.2704 27.5832 14.5926L27.5453 14.545ZM6.23374 16.6363L7.27322 15.3531L7.30461 15.5898C7.32949 15.7775 7.35965 15.966 7.39542 16.1553C8.06769 19.7162 10.4693 22.6853 14.4844 24.9849C17.9746 26.9902 20.0066 29.2961 20.5921 31.8252C20.8364 32.8806 20.88 33.919 20.7742 34.8269L20.7677 34.8831L20.7173 34.9079C19.1421 35.6848 17.3713 36.1208 15.4996 36.1208C8.93525 36.1208 3.61345 30.7574 3.61345 24.1408C3.61345 21.3001 4.59449 18.6898 6.23374 16.6363Z" fill="#54B6FF"/>
</svg>
