<svg width="46" height="40" viewBox="0 0 46 40" fill="none" xmlns="http://www.w3.org/2000/svg">
<g clip-path="url(#clip0_1462_4900)">
<path d="M0.015625 0.772292V15.0284L0.020222 14.463C0.115839 26.6449 10.3615 37.0589 22.9922 37.0589C35.6228 37.0589 45.8685 27.2103 45.9641 15.0284L45.9687 14.463V0.772292C45.9687 0.772292 42.7821 -0.7824 39.1578 2.92459C36.8309 5.3049 34.97 13.8543 29.9869 13.9306C23.3333 14.0336 18.8052 5.19181 13.3909 1.88843C7.73576 -1.56296 0.015625 0.772292 0.015625 0.772292Z" fill="url(#paint0_linear_1462_4900)"/>
<path d="M0.015625 0.772292V15.0284L0.020222 14.463C0.115839 26.6449 10.3615 37.0589 22.9922 37.0589C35.6228 37.0589 45.8685 27.2103 45.9641 15.0284L45.9687 14.463V0.772292C45.9687 0.772292 42.7821 -0.7824 39.1578 2.92459C36.8309 5.3049 34.97 13.8543 29.9869 13.9306C23.3333 14.0336 18.8052 5.19181 13.3909 1.88843C7.73576 -1.56296 0.015625 0.772292 0.015625 0.772292Z" fill="url(#paint1_linear_1462_4900)"/>
<path d="M45.965 16.4341L45.9696 15.8292V6.53229C44.6724 6.74835 43.0754 7.38181 41.3892 8.93742C38.779 11.3462 36.692 19.9977 31.104 20.0759C23.6413 20.1798 18.5634 11.2322 12.4918 7.8884C8.27545 5.56785 3.03951 5.83355 0 6.2721V16.4341L0.00459696 15.8292C0.100214 28.8607 10.3496 40 22.9848 40C35.62 40 45.8694 29.4656 45.965 16.4341Z" fill="url(#paint2_linear_1462_4900)"/>
<path d="M45.965 16.4341L45.9696 15.8292V6.53229C44.6724 6.74835 43.0754 7.38181 41.3892 8.93742C38.779 11.3462 36.692 19.9977 31.104 20.0759C23.6413 20.1798 18.5634 11.2322 12.4918 7.8884C8.27545 5.56785 3.03951 5.83355 0 6.2721V16.4341L0.00459696 15.8292C0.100214 28.8607 10.3496 40 22.9848 40C35.62 40 45.8694 29.4656 45.965 16.4341Z" fill="url(#paint3_linear_1462_4900)"/>
<path d="M45.965 16.4342L45.9696 15.8292V14.1881C44.9757 14.5669 43.8936 15.1737 42.7756 16.1326C39.966 18.5414 37.7199 27.1929 31.7043 27.271C23.6707 27.3749 18.2049 18.4274 11.668 15.0836C7.87184 13.1427 3.30705 13.0113 0 13.277V16.4342L0.00459696 15.8292C0.100214 28.8607 10.3496 40 22.9848 40C35.62 40 45.8694 29.4656 45.965 16.4342Z" fill="url(#paint4_linear_1462_4900)"/>
</g>
<defs>
<linearGradient id="paint0_linear_1462_4900" x1="-3.53912" y1="28.3047" x2="55.1824" y2="-2.40085" gradientUnits="userSpaceOnUse">
<stop stop-color="#FDA9FF"/>
<stop offset="0.0276" stop-color="#F9AAFF"/>
<stop offset="0.2435" stop-color="#DCB3FF"/>
<stop offset="0.3671" stop-color="#D1B6FF"/>
<stop offset="0.8897" stop-color="#4DFFE5"/>
</linearGradient>
<linearGradient id="paint1_linear_1462_4900" x1="20.422" y1="18.6812" x2="26.4735" y2="-3.50745" gradientUnits="userSpaceOnUse">
<stop stop-color="#16183C" stop-opacity="0.3"/>
<stop offset="0.8669" stop-color="#16183C" stop-opacity="0"/>
</linearGradient>
<linearGradient id="paint2_linear_1462_4900" x1="-1.59071" y1="29.9728" x2="51.0793" y2="6.66346" gradientUnits="userSpaceOnUse">
<stop stop-color="#FDA9FF"/>
<stop offset="0.0276" stop-color="#F9AAFF"/>
<stop offset="0.2435" stop-color="#DCB3FF"/>
<stop offset="0.3671" stop-color="#D1B6FF"/>
<stop offset="0.8897" stop-color="#4DFFE5"/>
</linearGradient>
<linearGradient id="paint3_linear_1462_4900" x1="17.7166" y1="24.91" x2="25.7852" y2="8.32454" gradientUnits="userSpaceOnUse">
<stop stop-color="#16183C" stop-opacity="0.3"/>
<stop offset="0.8669" stop-color="#16183C" stop-opacity="0"/>
</linearGradient>
<linearGradient id="paint4_linear_1462_4900" x1="-3.84895" y1="33.3244" x2="43.442" y2="15.17" gradientUnits="userSpaceOnUse">
<stop stop-color="#FDA9FF"/>
<stop offset="0.0276" stop-color="#F9AAFF"/>
<stop offset="0.2435" stop-color="#DCB3FF"/>
<stop offset="0.3671" stop-color="#D1B6FF"/>
<stop offset="0.8897" stop-color="#4DFFE5"/>
</linearGradient>
<clipPath id="clip0_1462_4900">
<rect width="45.9696" height="40" fill="white"/>
</clipPath>
</defs>
</svg>
